Coordinates
version=1
nRows=23
nColumns=38
inDegrees=no

Units are S.I. units (second, meters, Newtons, ...)
If the header above contains a line with 'inDegrees', this indicates whether rotational values are in degrees (yes) or radians (no).

endheader
time	pelvis_tilt	pelvis_list	pelvis_rotation	pelvis_tx	pelvis_ty	pelvis_tz	hip_flexion_r	hip_adduction_r	hip_rotation_r	knee_angle_r	ankle_angle_r	subtalar_angle_r	mtp_angle_r	hip_flexion_l	hip_adduction_l	hip_rotation_l	knee_angle_l	ankle_angle_l	subtalar_angle_l	mtp_angle_l	lumbar_extension	lumbar_bending	lumbar_rotation	arm_flex_r	arm_add_r	arm_rot_r	elbow_flex_r	pro_sup_r	wrist_flex_r	wrist_dev_r	arm_flex_l	arm_add_l	arm_rot_l	elbow_flex_l	pro_sup_l	wrist_flex_l	wrist_dev_l
2.27	-0.0575728	1.29003	-1.47629	0.802994	-0.539511	0.949831	-0.463453	0.084973	-0.250834	0.0770843	-0.138418	0	0	0.139436	-0.206549	-0.537402	0.715796	-0.191385	0	0	-0.424589	0.00503938	-0.160609	0.0487826	-0.452011	0.900782	0.726764	0.564104	0	0	-0.388215	-0.32874	-0.0366744	1.02938	1.5708	0	0
2.28	-0.0628314	1.29703	-1.46797	0.803548	-0.549018	0.947827	-0.465297	0.0867979	-0.254488	0.0809195	-0.129715	0	0	0.145489	-0.193716	-0.540163	0.654417	-0.189301	0	0	-0.418496	0.00608351	-0.161795	0.0480742	-0.44902	0.895243	0.722343	0.567969	0	0	-0.389	-0.327199	-0.0365969	1.02344	1.5708	0	0
2.29	-0.068863	1.30479	-1.45874	0.804226	-0.558535	0.945594	-0.464125	0.0878532	-0.260356	0.0894062	-0.126118	0	0	0.151911	-0.180457	-0.538737	0.59785	-0.184462	0	0	-0.411614	0.00777594	-0.163659	0.0506676	-0.449801	0.901179	0.721204	0.557622	0	0	-0.389996	-0.325218	-0.0379463	1.01818	1.5708	0	0
2.3	-0.106816	1.32579	-1.41048	0.805191	-0.567782	0.941977	-0.449748	0.0999941	-0.261504	0.0921226	-0.114523	0	0	0.143297	-0.161283	-0.347057	0.418652	-0.202565	0	0	-0.38891	0.017571	-0.171033	0.054596	-0.446784	0.910646	0.712175	0.548088	0	0	-0.390298	-0.323004	-0.0384044	1.009	1.5708	0	0
2.31	-0.0888588	1.31924	-1.43032	0.806044	-0.577859	0.941463	-0.467347	0.0935224	-0.271464	0.0982211	-0.110621	0	0	0.15989	-0.151218	-0.518593	0.488884	-0.163293	0	0	-0.39761	0.0134229	-0.170307	0.0584628	-0.448457	0.916489	0.712054	0.54214	0	0	-0.391923	-0.321406	-0.0397567	1.00562	1.5708	0	0
2.32	-0.0935363	1.32465	-1.42241	0.806983	-0.587729	0.939564	-0.469502	0.0935931	-0.279065	0.106519	-0.105089	0	0	0.158962	-0.135092	-0.508184	0.439846	-0.14783	0	0	-0.392671	0.0143773	-0.172467	0.060363	-0.448156	0.919727	0.709251	0.538507	0	0	-0.393098	-0.32005	-0.040705	1.00009	1.5708	0	0
2.33	-0.0941817	1.33229	-1.42095	0.807708	-0.597832	0.937827	-0.468069	0.091069	-0.289082	0.11684	-0.0964924	0	0	0.156672	-0.114698	-0.483796	0.386935	-0.137991	0	0	-0.389577	0.0113518	-0.165204	0.00718522	-0.411979	0.741714	0.697105	0.716983	0	0	-0.388871	-0.323456	-0.0339356	0.996281	1.5708	0	0
2.34	-0.0879068	1.33426	-1.42284	0.808546	-0.607769	0.93656	-0.472124	0.0886221	-0.296458	0.131184	-0.0882657	0	0	0.146265	-0.0952298	-0.458321	0.331753	-0.139635	0	0	-0.385531	0.0104424	-0.173681	0.043011	-0.429789	0.856174	0.692902	0.598298	0	0	-0.392499	-0.321511	-0.038131	0.988147	1.5708	0	0
2.35	-0.0845859	1.33593	-1.4257	0.809025	-0.618063	0.935395	-0.476047	0.0855399	-0.30292	0.14572	-0.0835409	0	0	0.138029	-0.0831119	-0.443103	0.298781	-0.14274	0	0	-0.384333	0.00791071	-0.173061	0.0407111	-0.424765	0.84576	0.686789	0.605298	0	0	-0.393068	-0.322576	-0.037419	0.982402	1.5708	0	0
2.36	-0.085327	1.33599	-1.42603	0.809352	-0.628611	0.934322	-0.482468	0.0834456	-0.303929	0.1579	-0.0856931	0	0	0.133187	-0.0793061	-0.44357	0.293634	-0.142601	0	0	-0.383963	0.00611862	-0.171417	0.0416528	-0.424064	0.850049	0.684007	0.598074	0	0	-0.394865	-0.323318	-0.0386717	0.978147	1.5708	0	0
2.37	-0.0865899	1.33535	-1.42598	0.80973	-0.639408	0.933306	-0.48809	0.0806683	-0.308009	0.1746	-0.0837045	0	0	0.129533	-0.0783776	-0.446894	0.304403	-0.148133	0	0	-0.38404	0.00428765	-0.170332	0.0427439	-0.423819	0.855368	0.681742	0.590287	0	0	-0.398199	-0.323773	-0.0415681	0.975553	1.5708	0	0
2.38	-0.0896986	1.33396	-1.42485	0.810194	-0.65045	0.932345	-0.494139	0.0776432	-0.311365	0.192512	-0.082855	0	0	0.127087	-0.0808612	-0.456362	0.332334	-0.15246	0	0	-0.384284	0.00296316	-0.168466	0.0428272	-0.425112	0.860603	0.681547	0.583346	0	0	-0.402123	-0.323886	-0.0445183	0.973435	1.5708	0	0
2.39	-0.0918406	1.33215	-1.4252	0.810767	-0.661746	0.931486	-0.500243	0.0734691	-0.314403	0.211971	-0.0829183	0	0	0.123769	-0.0838316	-0.467919	0.367104	-0.153581	0	0	-0.384511	0.00171152	-0.165901	0.0414014	-0.427472	0.864745	0.68284	0.574222	0	0	-0.406005	-0.323932	-0.0466829	0.97093	1.5708	0	0
2.4	-0.0902344	1.33093	-1.42889	0.81152	-0.673313	0.930804	-0.505795	0.0679455	-0.316544	0.23205	-0.0847046	0	0	0.117631	-0.0823975	-0.470914	0.391363	-0.152985	0	0	-0.38367	-0.000294546	-0.163261	0.0384786	-0.429218	0.866649	0.682819	0.56712	0	0	-0.409134	-0.324528	-0.0472198	0.967136	1.5708	0	0
2.41	-0.0842485	1.33081	-1.43656	0.812437	-0.685086	0.930269	-0.508967	0.060578	-0.319412	0.255092	-0.0878929	0	0	0.110543	-0.0762867	-0.466082	0.401719	-0.15662	0	0	-0.381879	-0.00337845	-0.161033	0.0345763	-0.430597	0.866837	0.682187	0.560905	0	0	-0.412045	-0.324628	-0.0494972	0.963598	1.5708	0	0
2.42	-0.0719565	1.33286	-1.44893	0.813469	-0.697128	0.929848	-0.508614	0.0518024	-0.32337	0.282248	-0.0938938	0	0	0.105327	-0.0682456	-0.458152	0.402488	-0.175304	0	0	-0.380609	-0.00827621	-0.153682	-0.00623091	-0.408248	0.74103	0.676441	0.681335	0	0	-0.410948	-0.327281	-0.0479	0.961484	1.5708	0	0
2.43	-0.0607622	1.33261	-1.4604	0.814685	-0.709155	0.929891	-0.509227	0.0421339	-0.328038	0.310774	-0.108341	0	0	0.0992889	-0.0623251	-0.456083	0.404403	-0.209742	0	0	-0.376066	-0.0123958	-0.15837	0.0117983	-0.422289	0.818505	0.675261	0.598681	0	0	-0.416646	-0.324537	-0.0558541	0.955421	1.5708	0	0
2.44	-0.0492377	1.33352	-1.47102	0.815971	-0.721373	0.929998	-0.508281	0.0333307	-0.327933	0.339985	-0.118328	0	0	0.0950576	-0.0594498	-0.456472	0.411175	-0.228305	0	0	-0.372272	-0.0162321	-0.159119	0.00508225	-0.421548	0.811971	0.672892	0.601555	0	0	-0.419397	-0.324237	-0.0597514	0.95097	1.5708	0	0
2.45	-0.0404128	1.33573	-1.47836	0.817415	-0.733763	0.930087	-0.503894	0.024208	-0.328186	0.373485	-0.133363	0	0	0.0928611	-0.0584232	-0.458352	0.422457	-0.242729	0	0	-0.36685	-0.019138	-0.160028	-0.0036243	-0.421296	0.8018	0.671957	0.606589	0	0	-0.422085	-0.32307	-0.0648968	0.946911	1.5708	0	0
2.46	-0.0359402	1.33746	-1.4807	0.818993	-0.746196	0.93027	-0.497462	0.0154712	-0.327015	0.411138	-0.151349	0	0	0.0900291	-0.0582796	-0.455973	0.435581	-0.251395	0	0	-0.361477	-0.0206802	-0.160869	-0.0132936	-0.422084	0.79113	0.672759	0.611247	0	0	-0.424832	-0.323186	-0.0676767	0.94319	1.5708	0	0
2.47	-0.0331504	1.33825	-1.48116	0.820582	-0.758535	0.930704	-0.488504	0.00640021	-0.321916	0.454404	-0.172869	0	0	0.0854685	-0.0581196	-0.450123	0.448738	-0.257125	0	0	-0.35755	-0.0213866	-0.161944	-0.0225574	-0.423433	0.780796	0.674634	0.616107	0	0	-0.427112	-0.323619	-0.0700288	0.940336	1.5708	0	0
2.48	-0.0280624	1.33688	-1.48351	0.822244	-0.770625	0.931583	-0.479605	-0.00406004	-0.315455	0.501916	-0.179983	0	0	0.0767262	-0.0563621	-0.442189	0.458247	-0.258709	0	0	-0.356303	-0.0221735	-0.16495	-0.0276983	-0.425542	0.779275	0.675585	0.615607	0	0	-0.429383	-0.323814	-0.0735222	0.938605	1.5708	0	0
2.49	-0.017557	1.33571	-1.49117	0.823835	-0.782465	0.932663	-0.467885	-0.0166176	-0.305242	0.551841	-0.21014	0	0	0.0660229	-0.0520345	-0.433555	0.463387	-0.255179	0	0	-0.354644	-0.0239467	-0.168032	-0.0313358	-0.428291	0.782931	0.6764	0.607916	0	0	-0.429875	-0.324962	-0.075116	0.935787	1.5708	0	0
